<mxfile host="app.diagrams.net" agent="Mozilla/5.0 (Windows NT 10.0; Win64; x64) AppleWebKit/537.36 (KHTML, like Gecko) Chrome/123.0.0.0 Safari/537.36" version="28.0.9">
  <diagram name="PÃ¡gina-1" id="Wkfy4zfm8j1Pdm_jzS7f">
    <mxGraphModel dx="1678" dy="914" grid="1" gridSize="10" guides="1" tooltips="1" connect="1" arrows="1" fold="1" page="1" pageScale="1" pageWidth="827" pageHeight="1169" math="0" shadow="0">
      <root>
        <mxCell id="0" />
        <mxCell id="1" parent="0" />
        <mxCell id="2IO7Noc0tJSZuoxgkoHs-1" value="ENERLINK" style="rounded=0;whiteSpace=wrap;html=1;fillColor=light-dark(#A0522D,#FFFF66);fontColor=#ffffff;strokeColor=#6D1F00;" vertex="1" parent="1">
          <mxGeometry x="320" y="360" width="130" height="30" as="geometry" />
        </mxCell>
        <mxCell id="2IO7Noc0tJSZuoxgkoHs-3" value="Ventas" style="rounded=0;whiteSpace=wrap;html=1;" vertex="1" parent="1">
          <mxGeometry x="320" y="280" width="130" height="30" as="geometry" />
        </mxCell>
        <mxCell id="2IO7Noc0tJSZuoxgkoHs-4" value="Ventas_productos" style="rounded=0;whiteSpace=wrap;html=1;" vertex="1" parent="1">
          <mxGeometry x="210" y="430" width="130" height="30" as="geometry" />
        </mxCell>
        <mxCell id="2IO7Noc0tJSZuoxgkoHs-6" value="Ventas_clientes" style="rounded=0;whiteSpace=wrap;html=1;" vertex="1" parent="1">
          <mxGeometry x="320" y="180" width="130" height="30" as="geometry" />
        </mxCell>
        <mxCell id="2IO7Noc0tJSZuoxgkoHs-7" value="Ciudad" style="rounded=0;whiteSpace=wrap;html=1;" vertex="1" parent="1">
          <mxGeometry x="520" y="160" width="130" height="30" as="geometry" />
        </mxCell>
        <mxCell id="2IO7Noc0tJSZuoxgkoHs-8" value="Departamento" style="rounded=0;whiteSpace=wrap;html=1;" vertex="1" parent="1">
          <mxGeometry x="520" y="100" width="130" height="30" as="geometry" />
        </mxCell>
        <mxCell id="2IO7Noc0tJSZuoxgkoHs-9" value="Pais" style="rounded=0;whiteSpace=wrap;html=1;" vertex="1" parent="1">
          <mxGeometry x="520" y="40" width="130" height="30" as="geometry" />
        </mxCell>
        <mxCell id="2IO7Noc0tJSZuoxgkoHs-10" value="Clientes" style="rounded=0;whiteSpace=wrap;html=1;" vertex="1" parent="1">
          <mxGeometry x="520" y="230" width="130" height="30" as="geometry" />
        </mxCell>
        <mxCell id="2IO7Noc0tJSZuoxgkoHs-14" value="" style="fontSize=12;html=1;endArrow=ERzeroToMany;startArrow=ERmandOne;rounded=0;entryX=0.5;entryY=1;entryDx=0;entryDy=0;exitX=0.5;exitY=0;exitDx=0;exitDy=0;" edge="1" parent="1" source="2IO7Noc0tJSZuoxgkoHs-1" target="2IO7Noc0tJSZuoxgkoHs-3">
          <mxGeometry width="100" height="100" relative="1" as="geometry">
            <mxPoint x="362.42" y="360" as="sourcePoint" />
            <mxPoint x="407.5800000000001" y="309.4" as="targetPoint" />
          </mxGeometry>
        </mxCell>
        <mxCell id="2IO7Noc0tJSZuoxgkoHs-16" value="" style="fontSize=12;html=1;endArrow=ERmandOne;startArrow=ERmandOne;rounded=0;exitX=0.5;exitY=1;exitDx=0;exitDy=0;entryX=1;entryY=0.5;entryDx=0;entryDy=0;edgeStyle=orthogonalEdgeStyle;" edge="1" parent="1" source="2IO7Noc0tJSZuoxgkoHs-1" target="2IO7Noc0tJSZuoxgkoHs-4">
          <mxGeometry width="100" height="100" relative="1" as="geometry">
            <mxPoint x="390" y="410" as="sourcePoint" />
            <mxPoint x="400" y="270" as="targetPoint" />
          </mxGeometry>
        </mxCell>
        <mxCell id="2IO7Noc0tJSZuoxgkoHs-17" value="" style="fontSize=12;html=1;endArrow=ERmany;startArrow=ERmany;rounded=0;exitX=0.5;exitY=0;exitDx=0;exitDy=0;edgeStyle=orthogonalEdgeStyle;" edge="1" parent="1" source="2IO7Noc0tJSZuoxgkoHs-3">
          <mxGeometry width="100" height="100" relative="1" as="geometry">
            <mxPoint x="390" y="240" as="sourcePoint" />
            <mxPoint x="520" y="240" as="targetPoint" />
            <Array as="points">
              <mxPoint x="385" y="240" />
              <mxPoint x="520" y="240" />
            </Array>
          </mxGeometry>
        </mxCell>
        <mxCell id="2IO7Noc0tJSZuoxgkoHs-19" value="" style="fontSize=12;html=1;endArrow=ERzeroToOne;endFill=1;rounded=0;entryX=0.5;entryY=1;entryDx=0;entryDy=0;" edge="1" parent="1" target="2IO7Noc0tJSZuoxgkoHs-6">
          <mxGeometry width="100" height="100" relative="1" as="geometry">
            <mxPoint x="385" y="240" as="sourcePoint" />
            <mxPoint x="500" y="130" as="targetPoint" />
          </mxGeometry>
        </mxCell>
        <mxCell id="2IO7Noc0tJSZuoxgkoHs-22" value="" style="fontSize=12;html=1;endArrow=ERzeroToMany;startArrow=ERmandOne;rounded=0;entryX=0.5;entryY=1;entryDx=0;entryDy=0;exitX=0.5;exitY=0;exitDx=0;exitDy=0;" edge="1" parent="1" source="2IO7Noc0tJSZuoxgkoHs-10" target="2IO7Noc0tJSZuoxgkoHs-7">
          <mxGeometry width="100" height="100" relative="1" as="geometry">
            <mxPoint x="500" y="260" as="sourcePoint" />
            <mxPoint x="600" y="160" as="targetPoint" />
          </mxGeometry>
        </mxCell>
        <mxCell id="2IO7Noc0tJSZuoxgkoHs-23" value="" style="fontSize=12;html=1;endArrow=ERzeroToMany;startArrow=ERmandOne;rounded=0;entryX=0.462;entryY=1;entryDx=0;entryDy=0;entryPerimeter=0;" edge="1" parent="1">
          <mxGeometry width="100" height="100" relative="1" as="geometry">
            <mxPoint x="584.83" y="160" as="sourcePoint" />
            <mxPoint x="584.89" y="130" as="targetPoint" />
            <Array as="points">
              <mxPoint x="584.83" y="160" />
            </Array>
          </mxGeometry>
        </mxCell>
        <mxCell id="2IO7Noc0tJSZuoxgkoHs-24" value="" style="fontSize=12;html=1;endArrow=ERzeroToMany;startArrow=ERmandOne;rounded=0;entryX=0.5;entryY=1;entryDx=0;entryDy=0;" edge="1" parent="1">
          <mxGeometry width="100" height="100" relative="1" as="geometry">
            <mxPoint x="585" y="100" as="sourcePoint" />
            <mxPoint x="584.83" y="70" as="targetPoint" />
          </mxGeometry>
        </mxCell>
        <mxCell id="2IO7Noc0tJSZuoxgkoHs-26" value="Productos" style="rounded=0;whiteSpace=wrap;html=1;" vertex="1" parent="1">
          <mxGeometry x="150" y="330" width="130" height="30" as="geometry" />
        </mxCell>
        <mxCell id="2IO7Noc0tJSZuoxgkoHs-27" value="Precio" style="rounded=0;whiteSpace=wrap;html=1;" vertex="1" parent="1">
          <mxGeometry x="10" y="380" width="130" height="30" as="geometry" />
        </mxCell>
        <mxCell id="2IO7Noc0tJSZuoxgkoHs-28" value="Cantidad" style="rounded=0;whiteSpace=wrap;html=1;" vertex="1" parent="1">
          <mxGeometry x="10" y="290" width="130" height="30" as="geometry" />
        </mxCell>
        <mxCell id="2IO7Noc0tJSZuoxgkoHs-29" value="" style="edgeStyle=orthogonalEdgeStyle;fontSize=12;html=1;endArrow=ERmany;startArrow=ERmany;rounded=0;exitX=0.75;exitY=0;exitDx=0;exitDy=0;" edge="1" parent="1" source="2IO7Noc0tJSZuoxgkoHs-26">
          <mxGeometry width="100" height="100" relative="1" as="geometry">
            <mxPoint x="220" y="400" as="sourcePoint" />
            <mxPoint x="320" y="290" as="targetPoint" />
            <Array as="points">
              <mxPoint x="248" y="290" />
            </Array>
          </mxGeometry>
        </mxCell>
        <mxCell id="2IO7Noc0tJSZuoxgkoHs-31" value="" style="edgeStyle=orthogonalEdgeStyle;fontSize=12;html=1;endArrow=ERmandOne;startArrow=ERmandOne;rounded=0;entryX=0.12;entryY=1.06;entryDx=0;entryDy=0;exitX=1;exitY=0.5;exitDx=0;exitDy=0;entryPerimeter=0;" edge="1" parent="1" source="2IO7Noc0tJSZuoxgkoHs-27" target="2IO7Noc0tJSZuoxgkoHs-26">
          <mxGeometry width="100" height="100" relative="1" as="geometry">
            <mxPoint x="140" y="390" as="sourcePoint" />
            <mxPoint x="240" y="290" as="targetPoint" />
          </mxGeometry>
        </mxCell>
        <mxCell id="2IO7Noc0tJSZuoxgkoHs-32" value="" style="edgeStyle=orthogonalEdgeStyle;fontSize=12;html=1;endArrow=ERmandOne;startArrow=ERmandOne;rounded=0;entryX=0.25;entryY=0;entryDx=0;entryDy=0;exitX=1;exitY=0.5;exitDx=0;exitDy=0;" edge="1" parent="1" source="2IO7Noc0tJSZuoxgkoHs-28" target="2IO7Noc0tJSZuoxgkoHs-26">
          <mxGeometry width="100" height="100" relative="1" as="geometry">
            <mxPoint x="160" y="340" as="sourcePoint" />
            <mxPoint x="203" y="310" as="targetPoint" />
          </mxGeometry>
        </mxCell>
        <mxCell id="2IO7Noc0tJSZuoxgkoHs-36" value="" style="edgeStyle=orthogonalEdgeStyle;fontSize=12;html=1;endArrow=ERoneToMany;rounded=0;entryX=0.772;entryY=0.004;entryDx=0;entryDy=0;entryPerimeter=0;" edge="1" parent="1" target="2IO7Noc0tJSZuoxgkoHs-4">
          <mxGeometry width="100" height="100" relative="1" as="geometry">
            <mxPoint x="290" y="290" as="sourcePoint" />
            <mxPoint x="290" y="300" as="targetPoint" />
            <Array as="points">
              <mxPoint x="290" y="290" />
              <mxPoint x="290" y="390" />
              <mxPoint x="290" y="390" />
            </Array>
          </mxGeometry>
        </mxCell>
        <mxCell id="2IO7Noc0tJSZuoxgkoHs-37" value="Plantas_solares" style="rounded=0;whiteSpace=wrap;html=1;" vertex="1" parent="1">
          <mxGeometry x="150" y="220" width="130" height="30" as="geometry" />
        </mxCell>
        <mxCell id="2IO7Noc0tJSZuoxgkoHs-39" value="" style="fontSize=12;html=1;endArrow=ERmandOne;startArrow=ERmandOne;rounded=0;exitX=0.5;exitY=0;exitDx=0;exitDy=0;entryX=0.5;entryY=1;entryDx=0;entryDy=0;" edge="1" parent="1" source="2IO7Noc0tJSZuoxgkoHs-26" target="2IO7Noc0tJSZuoxgkoHs-37">
          <mxGeometry width="100" height="100" relative="1" as="geometry">
            <mxPoint x="200" y="280" as="sourcePoint" />
            <mxPoint x="300" y="180" as="targetPoint" />
          </mxGeometry>
        </mxCell>
        <mxCell id="2IO7Noc0tJSZuoxgkoHs-40" value="Capacidad" style="rounded=0;whiteSpace=wrap;html=1;" vertex="1" parent="1">
          <mxGeometry x="230" y="120" width="130" height="30" as="geometry" />
        </mxCell>
        <mxCell id="2IO7Noc0tJSZuoxgkoHs-41" value="Fecha_instalaciÃ³n" style="rounded=0;whiteSpace=wrap;html=1;" vertex="1" parent="1">
          <mxGeometry x="90" y="120" width="130" height="30" as="geometry" />
        </mxCell>
        <mxCell id="2IO7Noc0tJSZuoxgkoHs-43" value="" style="fontSize=12;html=1;endArrow=ERmandOne;startArrow=ERmandOne;rounded=0;entryX=0.5;entryY=1;entryDx=0;entryDy=0;edgeStyle=orthogonalEdgeStyle;" edge="1" parent="1" target="2IO7Noc0tJSZuoxgkoHs-42">
          <mxGeometry width="100" height="100" relative="1" as="geometry">
            <mxPoint x="150" y="235" as="sourcePoint" />
            <mxPoint x="300" y="120" as="targetPoint" />
            <Array as="points">
              <mxPoint x="85" y="235" />
            </Array>
          </mxGeometry>
        </mxCell>
        <mxCell id="2IO7Noc0tJSZuoxgkoHs-45" value="" style="fontSize=12;html=1;endArrow=ERmandOne;startArrow=ERmandOne;rounded=0;entryX=0.75;entryY=1;entryDx=0;entryDy=0;exitX=0.5;exitY=0;exitDx=0;exitDy=0;edgeStyle=orthogonalEdgeStyle;" edge="1" parent="1" source="2IO7Noc0tJSZuoxgkoHs-37" target="2IO7Noc0tJSZuoxgkoHs-41">
          <mxGeometry width="100" height="100" relative="1" as="geometry">
            <mxPoint x="210" y="220" as="sourcePoint" />
            <mxPoint x="220" y="130" as="targetPoint" />
          </mxGeometry>
        </mxCell>
        <mxCell id="2IO7Noc0tJSZuoxgkoHs-42" value="Estado" style="rounded=0;whiteSpace=wrap;html=1;" vertex="1" parent="1">
          <mxGeometry x="20" y="170" width="130" height="30" as="geometry" />
        </mxCell>
        <mxCell id="2IO7Noc0tJSZuoxgkoHs-47" value="" style="fontSize=12;html=1;endArrow=ERmandOne;startArrow=ERmandOne;rounded=0;entryX=0.25;entryY=1;entryDx=0;entryDy=0;exitX=0.75;exitY=0;exitDx=0;exitDy=0;edgeStyle=orthogonalEdgeStyle;" edge="1" parent="1" source="2IO7Noc0tJSZuoxgkoHs-37" target="2IO7Noc0tJSZuoxgkoHs-40">
          <mxGeometry width="100" height="100" relative="1" as="geometry">
            <mxPoint x="214.76" y="90" as="sourcePoint" />
            <mxPoint x="214.76" y="50" as="targetPoint" />
          </mxGeometry>
        </mxCell>
        <mxCell id="2IO7Noc0tJSZuoxgkoHs-49" value="Contratos" style="rounded=0;whiteSpace=wrap;html=1;" vertex="1" parent="1">
          <mxGeometry x="500" y="360" width="130" height="30" as="geometry" />
        </mxCell>
        <mxCell id="2IO7Noc0tJSZuoxgkoHs-50" value="" style="fontSize=12;html=1;endArrow=ERzeroToMany;startArrow=ERmandOne;rounded=0;exitX=1;exitY=0.5;exitDx=0;exitDy=0;entryX=0;entryY=0.5;entryDx=0;entryDy=0;" edge="1" parent="1" source="2IO7Noc0tJSZuoxgkoHs-1" target="2IO7Noc0tJSZuoxgkoHs-49">
          <mxGeometry width="100" height="100" relative="1" as="geometry">
            <mxPoint x="490" y="380" as="sourcePoint" />
            <mxPoint x="500" y="350" as="targetPoint" />
          </mxGeometry>
        </mxCell>
        <mxCell id="2IO7Noc0tJSZuoxgkoHs-52" value="Fecha_inicio" style="rounded=0;whiteSpace=wrap;html=1;" vertex="1" parent="1">
          <mxGeometry x="410" y="420" width="130" height="30" as="geometry" />
        </mxCell>
        <mxCell id="2IO7Noc0tJSZuoxgkoHs-53" value="Fecha_fin" style="rounded=0;whiteSpace=wrap;html=1;" vertex="1" parent="1">
          <mxGeometry x="600" y="420" width="130" height="30" as="geometry" />
        </mxCell>
        <mxCell id="2IO7Noc0tJSZuoxgkoHs-54" value="Tarifa" style="rounded=0;whiteSpace=wrap;html=1;" vertex="1" parent="1">
          <mxGeometry x="500" y="470" width="130" height="30" as="geometry" />
        </mxCell>
        <mxCell id="2IO7Noc0tJSZuoxgkoHs-55" value="" style="fontSize=12;html=1;endArrow=ERmandOne;startArrow=ERmandOne;rounded=0;entryX=0.25;entryY=1;entryDx=0;entryDy=0;exitX=0.75;exitY=0;exitDx=0;exitDy=0;edgeStyle=orthogonalEdgeStyle;" edge="1" parent="1" source="2IO7Noc0tJSZuoxgkoHs-52" target="2IO7Noc0tJSZuoxgkoHs-49">
          <mxGeometry width="100" height="100" relative="1" as="geometry">
            <mxPoint x="480" y="510" as="sourcePoint" />
            <mxPoint x="580" y="410" as="targetPoint" />
          </mxGeometry>
        </mxCell>
        <mxCell id="2IO7Noc0tJSZuoxgkoHs-56" value="" style="fontSize=12;html=1;endArrow=ERmandOne;startArrow=ERmandOne;rounded=0;entryX=0.75;entryY=1;entryDx=0;entryDy=0;exitX=0.25;exitY=0;exitDx=0;exitDy=0;edgeStyle=orthogonalEdgeStyle;" edge="1" parent="1" source="2IO7Noc0tJSZuoxgkoHs-53" target="2IO7Noc0tJSZuoxgkoHs-49">
          <mxGeometry width="100" height="100" relative="1" as="geometry">
            <mxPoint x="630" y="440" as="sourcePoint" />
            <mxPoint x="655" y="410" as="targetPoint" />
          </mxGeometry>
        </mxCell>
        <mxCell id="2IO7Noc0tJSZuoxgkoHs-57" value="" style="fontSize=12;html=1;endArrow=ERmandOne;startArrow=ERmandOne;rounded=0;entryX=0.5;entryY=1;entryDx=0;entryDy=0;exitX=0.5;exitY=0.052;exitDx=0;exitDy=0;edgeStyle=orthogonalEdgeStyle;exitPerimeter=0;" edge="1" parent="1" source="2IO7Noc0tJSZuoxgkoHs-54" target="2IO7Noc0tJSZuoxgkoHs-49">
          <mxGeometry width="100" height="100" relative="1" as="geometry">
            <mxPoint x="570" y="460" as="sourcePoint" />
            <mxPoint x="595" y="430" as="targetPoint" />
          </mxGeometry>
        </mxCell>
        <mxCell id="2IO7Noc0tJSZuoxgkoHs-58" value="Paneles_solares" style="rounded=0;whiteSpace=wrap;html=1;" vertex="1" parent="1">
          <mxGeometry x="140" y="500" width="130" height="30" as="geometry" />
        </mxCell>
        <mxCell id="2IO7Noc0tJSZuoxgkoHs-59" value="Modelo" style="rounded=0;whiteSpace=wrap;html=1;" vertex="1" parent="1">
          <mxGeometry x="10" y="550" width="130" height="30" as="geometry" />
        </mxCell>
        <mxCell id="2IO7Noc0tJSZuoxgkoHs-60" value="Potencia_Nominal" style="rounded=0;whiteSpace=wrap;html=1;" vertex="1" parent="1">
          <mxGeometry x="40" y="600" width="130" height="30" as="geometry" />
        </mxCell>
        <mxCell id="2IO7Noc0tJSZuoxgkoHs-61" value="Fecha_instalacion" style="rounded=0;whiteSpace=wrap;html=1;" vertex="1" parent="1">
          <mxGeometry x="270" y="550" width="130" height="30" as="geometry" />
        </mxCell>
        <mxCell id="2IO7Noc0tJSZuoxgkoHs-62" value="Estado" style="rounded=0;whiteSpace=wrap;html=1;" vertex="1" parent="1">
          <mxGeometry x="200" y="600" width="130" height="30" as="geometry" />
        </mxCell>
        <mxCell id="2IO7Noc0tJSZuoxgkoHs-63" value="" style="fontSize=12;html=1;endArrow=ERmandOne;startArrow=ERmandOne;rounded=0;entryX=0.25;entryY=1;entryDx=0;entryDy=0;exitX=0.338;exitY=0.007;exitDx=0;exitDy=0;exitPerimeter=0;" edge="1" parent="1" source="2IO7Noc0tJSZuoxgkoHs-58" target="2IO7Noc0tJSZuoxgkoHs-26">
          <mxGeometry width="100" height="100" relative="1" as="geometry">
            <mxPoint x="110" y="530" as="sourcePoint" />
            <mxPoint x="210" y="430" as="targetPoint" />
          </mxGeometry>
        </mxCell>
        <mxCell id="2IO7Noc0tJSZuoxgkoHs-64" value="" style="fontSize=12;html=1;endArrow=ERoneToMany;rounded=0;exitX=0;exitY=0.5;exitDx=0;exitDy=0;entryX=0.5;entryY=0;entryDx=0;entryDy=0;edgeStyle=orthogonalEdgeStyle;" edge="1" parent="1" source="2IO7Noc0tJSZuoxgkoHs-58" target="2IO7Noc0tJSZuoxgkoHs-59">
          <mxGeometry width="100" height="100" relative="1" as="geometry">
            <mxPoint x="110" y="590" as="sourcePoint" />
            <mxPoint x="210" y="490" as="targetPoint" />
          </mxGeometry>
        </mxCell>
        <mxCell id="2IO7Noc0tJSZuoxgkoHs-65" value="" style="edgeStyle=orthogonalEdgeStyle;fontSize=12;html=1;endArrow=ERmandOne;startArrow=ERmandOne;rounded=0;entryX=0.5;entryY=0;entryDx=0;entryDy=0;exitX=1;exitY=0.5;exitDx=0;exitDy=0;" edge="1" parent="1" source="2IO7Noc0tJSZuoxgkoHs-58" target="2IO7Noc0tJSZuoxgkoHs-61">
          <mxGeometry width="100" height="100" relative="1" as="geometry">
            <mxPoint x="110" y="590" as="sourcePoint" />
            <mxPoint x="210" y="490" as="targetPoint" />
          </mxGeometry>
        </mxCell>
        <mxCell id="2IO7Noc0tJSZuoxgkoHs-66" value="" style="edgeStyle=orthogonalEdgeStyle;fontSize=12;html=1;endArrow=ERmandOne;startArrow=ERmandOne;rounded=0;entryX=0.157;entryY=1.02;entryDx=0;entryDy=0;entryPerimeter=0;" edge="1" parent="1" target="2IO7Noc0tJSZuoxgkoHs-58">
          <mxGeometry width="100" height="100" relative="1" as="geometry">
            <mxPoint x="160" y="600" as="sourcePoint" />
            <mxPoint x="210" y="490" as="targetPoint" />
            <Array as="points">
              <mxPoint x="160" y="565" />
              <mxPoint x="160" y="565" />
            </Array>
          </mxGeometry>
        </mxCell>
        <mxCell id="2IO7Noc0tJSZuoxgkoHs-67" value="" style="edgeStyle=orthogonalEdgeStyle;fontSize=12;html=1;endArrow=ERmandOne;startArrow=ERmandOne;rounded=0;entryX=0.697;entryY=1.044;entryDx=0;entryDy=0;entryPerimeter=0;exitX=0.233;exitY=0.021;exitDx=0;exitDy=0;exitPerimeter=0;" edge="1" parent="1" source="2IO7Noc0tJSZuoxgkoHs-62" target="2IO7Noc0tJSZuoxgkoHs-58">
          <mxGeometry width="100" height="100" relative="1" as="geometry">
            <mxPoint x="240" y="599" as="sourcePoint" />
            <mxPoint x="240" y="530" as="targetPoint" />
            <Array as="points">
              <mxPoint x="230" y="590" />
              <mxPoint x="231" y="590" />
            </Array>
          </mxGeometry>
        </mxCell>
      </root>
    </mxGraphModel>
  </diagram>
</mxfile>
